{
	"patcher" : 	{
		"fileversion" : 1,
		"appversion" : 		{
			"major" : 9,
			"minor" : 0,
			"revision" : 0,
			"architecture" : "x64",
			"modernui" : 1
		}
,
		"classnamespace" : "box",
		"rect" : [ 34.0, 76.0, 1433.0, 843.0 ],
		"openinpresentation" : 1,
		"gridsize" : [ 15.0, 15.0 ],
		"boxes" : [ 			{
				"box" : 				{
					"id" : "obj-4",
					"maxclass" : "newobj",
					"numinlets" : 6,
					"numoutlets" : 1,
					"outlettype" : [ "" ],
					"patching_rect" : [ 449.629614889621735, 345.925914585590363, 103.0, 22.0 ],
					"text" : "scale 0. 127. 0. 1."
				}

			}
, 			{
				"box" : 				{
					"id" : "obj-3",
					"maxclass" : "newobj",
					"numinlets" : 2,
					"numoutlets" : 1,
					"outlettype" : [ "signal" ],
					"patching_rect" : [ 397.037024021148682, 382.222209692001343, 29.5, 22.0 ],
					"text" : "*~"
				}

			}
, 			{
				"box" : 				{
					"id" : "obj-2",
					"maxclass" : "newobj",
					"numinlets" : 3,
					"numoutlets" : 3,
					"outlettype" : [ "", "", "" ],
					"patching_rect" : [ 336.764699459075928, 51.851850152015686, 72.0, 22.0 ],
					"text" : "route bang i"
				}

			}
, 			{
				"box" : 				{
					"id" : "obj-16",
					"maxclass" : "newobj",
					"numinlets" : 2,
					"numoutlets" : 1,
					"outlettype" : [ "signal" ],
					"patching_rect" : [ 386.264699459075928, 416.0, 29.5, 22.0 ],
					"text" : "*~"
				}

			}
, 			{
				"box" : 				{
					"comment" : "",
					"id" : "obj-15",
					"index" : 0,
					"maxclass" : "inlet",
					"numinlets" : 0,
					"numoutlets" : 1,
					"outlettype" : [ "" ],
					"patching_rect" : [ 353.0, 346.15384966135025, 30.0, 30.0 ]
				}

			}
, 			{
				"box" : 				{
					"id" : "obj-5",
					"maxclass" : "newobj",
					"numinlets" : 1,
					"numoutlets" : 4,
					"outlettype" : [ "", "", "", "" ],
					"patching_rect" : [ 776.0, 94.117645263671875, 135.0, 22.0 ],
					"restore" : 					{
						"attrui" : [ "mode", 1 ],
						"attrui[1]" : [ "clickadd", 0 ],
						"envCurve" : [ 0 ],
						"envFunction" : [ 464.0, 0.0, 1.0, 0.0, 0.0, 0, 0.0, 17.857373547046741, 1.0, 0, 0.0, 464.0, 0.0, 0, -0.995, "curve" ],
						"envLength" : [ 0 ]
					}
,
					"text" : "autopattr @autoname 1",
					"varname" : "u253001168"
				}

			}
, 			{
				"box" : 				{
					"comment" : "",
					"id" : "obj-1",
					"index" : 0,
					"maxclass" : "outlet",
					"numinlets" : 1,
					"numoutlets" : 0,
					"patching_rect" : [ 648.294106006622314, 147.058820724487305, 30.0, 30.0 ]
				}

			}
, 			{
				"box" : 				{
					"bgcolor" : [ 0.2, 0.2, 0.2, 0.01 ],
					"id" : "obj-35",
					"maxclass" : "number",
					"numinlets" : 1,
					"numoutlets" : 2,
					"outlettype" : [ "", "bang" ],
					"parameter_enable" : 1,
					"patching_rect" : [ 510.294107913970947, 113.970586061477661, 50.0, 22.0 ],
					"presentation" : 1,
					"presentation_rect" : [ 207.207207083702087, 47.747747719287872, 44.385025441646576, 22.0 ],
					"saved_attribute_attributes" : 					{
						"valueof" : 						{
							"parameter_invisible" : 1,
							"parameter_longname" : "number",
							"parameter_modmode" : 0,
							"parameter_osc_name" : "<default>",
							"parameter_shortname" : "number",
							"parameter_type" : 3
						}

					}
,
					"textcolor" : [ 1.0, 0.909803921568627, 0.584313725490196, 1.0 ],
					"varname" : "envLength"
				}

			}
, 			{
				"box" : 				{
					"bgcolor" : [ 0.2, 0.2, 0.2, 0.0 ],
					"id" : "obj-106",
					"maxclass" : "dial",
					"needlecolor" : [ 1.0, 0.0, 0.0, 1.0 ],
					"numinlets" : 1,
					"numoutlets" : 1,
					"outlettype" : [ "float" ],
					"outlinecolor" : [ 1.0, 1.0, 1.0, 1.0 ],
					"parameter_enable" : 0,
					"patching_rect" : [ 603.676459074020386, 234.558819055557251, 40.0, 40.0 ],
					"presentation" : 1,
					"presentation_rect" : [ 207.207207083702087, 5.855855852365494, 40.0, 40.0 ],
					"style" : "Audiomix",
					"varname" : "envCurve"
				}

			}
, 			{
				"box" : 				{
					"id" : "obj-212",
					"maxclass" : "message",
					"numinlets" : 2,
					"numoutlets" : 1,
					"outlettype" : [ "" ],
					"patching_rect" : [ 579.41175365447998, 147.058820724487305, 50.0, 22.0 ],
					"text" : "0 ms"
				}

			}
, 			{
				"box" : 				{
					"id" : "obj-210",
					"maxclass" : "newobj",
					"numinlets" : 1,
					"numoutlets" : 1,
					"outlettype" : [ "" ],
					"patching_rect" : [ 610.294106006622314, 111.764703750610352, 68.0, 22.0 ],
					"text" : "append ms"
				}

			}
, 			{
				"box" : 				{
					"fontname" : "Microsoft PhagsPa Bold",
					"id" : "obj-207",
					"maxclass" : "comment",
					"numinlets" : 1,
					"numoutlets" : 0,
					"patching_rect" : [ 336.764699459075928, 113.970586061477661, 159.0, 22.0 ],
					"presentation" : 1,
					"presentation_rect" : [ 92.342342287302017, 5.855855852365494, 64.0, 22.0 ],
					"text" : "Vol. env.",
					"textcolor" : [ 1.0, 0.909803921568627, 0.584313725490196, 1.0 ]
				}

			}
, 			{
				"box" : 				{
					"addpoints_with_curve" : [ 0.0, 0.0, 0, 0.0, 17.857373547046741, 1.0, 0, 0.0, 464.0, 0.0, 0, -0.995 ],
					"bgcolor" : [ 0.125490196078431, 0.125490196078431, 0.125490196078431, 1.0 ],
					"classic_curve" : 1,
					"clickadd" : 0,
					"domain" : 464.0,
					"id" : "obj-109",
					"linecolor" : [ 1.0, 0.890196078431372, 0.486274509803922, 1.0 ],
					"maxclass" : "function",
					"mode" : 1,
					"numinlets" : 1,
					"numoutlets" : 4,
					"outlettype" : [ "float", "", "", "bang" ],
					"parameter_enable" : 0,
					"patching_rect" : [ 336.764699459075928, 222.794113397598267, 200.0, 100.0 ],
					"presentation" : 1,
					"presentation_rect" : [ 0.0, -0.900900900363922, 255.151497662067413, 144.000001788139343 ],
					"varname" : "envFunction"
				}

			}
, 			{
				"box" : 				{
					"id" : "obj-100",
					"maxclass" : "newobj",
					"numinlets" : 6,
					"numoutlets" : 1,
					"outlettype" : [ "" ],
					"patching_rect" : [ 603.676459074020386, 284.558818101882935, 101.0, 22.0 ],
					"text" : "scale 0 127 -1. 1."
				}

			}
, 			{
				"box" : 				{
					"id" : "obj-95",
					"maxclass" : "message",
					"numinlets" : 2,
					"numoutlets" : 1,
					"outlettype" : [ "" ],
					"patching_rect" : [ 603.676459074020386, 319.852935075759888, 81.0, 22.0 ],
					"text" : "setcurve 2 $1"
				}

			}
, 			{
				"box" : 				{
					"id" : "obj-23",
					"maxclass" : "message",
					"numinlets" : 2,
					"numoutlets" : 1,
					"outlettype" : [ "" ],
					"patching_rect" : [ 510.294107913970947, 184.558820009231567, 81.0, 22.0 ],
					"text" : "setdomain $1"
				}

			}
, 			{
				"box" : 				{
					"id" : "obj-25",
					"maxclass" : "newobj",
					"numinlets" : 3,
					"numoutlets" : 2,
					"outlettype" : [ "signal", "bang" ],
					"patching_rect" : [ 396.764699459075928, 346.15384966135025, 45.0, 22.0 ],
					"text" : "curve~"
				}

			}
, 			{
				"box" : 				{
					"attr" : "clickadd",
					"id" : "obj-8",
					"maxclass" : "attrui",
					"numinlets" : 1,
					"numoutlets" : 1,
					"outlettype" : [ "" ],
					"parameter_enable" : 0,
					"patching_rect" : [ 336.764699459075928, 184.558820009231567, 150.0, 22.0 ],
					"varname" : "attrui[1]"
				}

			}
, 			{
				"box" : 				{
					"attr" : "mode",
					"id" : "obj-38",
					"maxclass" : "attrui",
					"numinlets" : 1,
					"numoutlets" : 1,
					"outlettype" : [ "" ],
					"parameter_enable" : 0,
					"patching_rect" : [ 336.764699459075928, 147.058820724487305, 150.0, 22.0 ],
					"varname" : "attrui"
				}

			}
, 			{
				"box" : 				{
					"angle" : 270.0,
					"bgcolor" : [ 0.764705882352941, 0.819607843137255, 0.572549019607843, 1.0 ],
					"bordercolor" : [ 0.972549019607843, 1.0, 0.32156862745098, 1.0 ],
					"id" : "obj-33",
					"maxclass" : "panel",
					"mode" : 0,
					"numinlets" : 1,
					"numoutlets" : 0,
					"patching_rect" : [ 314.705876350402832, 94.117645263671875, 423.52942943572998, 384.117663085460663 ],
					"proportion" : 0.5
				}

			}
, 			{
				"box" : 				{
					"comment" : "",
					"hint" : "volumeEnvelop: trigger the envelop generator with a bang",
					"id" : "obj-55",
					"index" : 0,
					"maxclass" : "inlet",
					"numinlets" : 0,
					"numoutlets" : 1,
					"outlettype" : [ "" ],
					"patching_rect" : [ 336.764699459075928, 12.0, 30.0, 30.0 ]
				}

			}
, 			{
				"box" : 				{
					"comment" : "",
					"id" : "obj-56",
					"index" : 0,
					"maxclass" : "outlet",
					"numinlets" : 1,
					"numoutlets" : 0,
					"patching_rect" : [ 385.764699459075928, 502.0, 30.0, 30.0 ]
				}

			}
 ],
		"lines" : [ 			{
				"patchline" : 				{
					"destination" : [ "obj-95", 0 ],
					"midpoints" : [ 613.176459074020386, 307.872716116165179, 613.176459074020386, 307.872716116165179 ],
					"source" : [ "obj-100", 0 ]
				}

			}
, 			{
				"patchline" : 				{
					"destination" : [ "obj-100", 0 ],
					"midpoints" : [ 613.176459074020386, 274.872716116165179, 613.176459074020386, 274.872716116165179 ],
					"source" : [ "obj-106", 0 ]
				}

			}
, 			{
				"patchline" : 				{
					"destination" : [ "obj-25", 0 ],
					"midpoints" : [ 406.598032792409299, 331.872716116165179, 406.264699459075928, 331.872716116165179 ],
					"source" : [ "obj-109", 1 ]
				}

			}
, 			{
				"patchline" : 				{
					"destination" : [ "obj-16", 0 ],
					"source" : [ "obj-15", 0 ]
				}

			}
, 			{
				"patchline" : 				{
					"destination" : [ "obj-56", 0 ],
					"source" : [ "obj-16", 0 ]
				}

			}
, 			{
				"patchline" : 				{
					"destination" : [ "obj-109", 0 ],
					"source" : [ "obj-2", 0 ]
				}

			}
, 			{
				"patchline" : 				{
					"destination" : [ "obj-4", 0 ],
					"midpoints" : [ 372.764699459075928, 99.0, 321.0, 99.0, 321.0, 333.0, 459.129614889621735, 333.0 ],
					"source" : [ "obj-2", 1 ]
				}

			}
, 			{
				"patchline" : 				{
					"destination" : [ "obj-1", 0 ],
					"order" : 0,
					"source" : [ "obj-210", 0 ]
				}

			}
, 			{
				"patchline" : 				{
					"destination" : [ "obj-212", 1 ],
					"midpoints" : [ 619.794106006622314, 136.872716116165179, 619.91175365447998, 136.872716116165179 ],
					"order" : 1,
					"source" : [ "obj-210", 0 ]
				}

			}
, 			{
				"patchline" : 				{
					"destination" : [ "obj-109", 0 ],
					"midpoints" : [ 519.794107913970947, 215.214179681991595, 346.264699459075928, 215.214179681991595 ],
					"source" : [ "obj-23", 0 ]
				}

			}
, 			{
				"patchline" : 				{
					"destination" : [ "obj-3", 0 ],
					"source" : [ "obj-25", 0 ]
				}

			}
, 			{
				"patchline" : 				{
					"destination" : [ "obj-16", 1 ],
					"source" : [ "obj-3", 0 ]
				}

			}
, 			{
				"patchline" : 				{
					"destination" : [ "obj-210", 0 ],
					"order" : 0,
					"source" : [ "obj-35", 0 ]
				}

			}
, 			{
				"patchline" : 				{
					"destination" : [ "obj-23", 0 ],
					"order" : 1,
					"source" : [ "obj-35", 0 ]
				}

			}
, 			{
				"patchline" : 				{
					"destination" : [ "obj-109", 0 ],
					"midpoints" : [ 346.264699459075928, 169.872716116165179, 323.458182921043374, 169.872716116165179, 323.458182921043374, 217.872716116165179, 346.264699459075928, 217.872716116165179 ],
					"source" : [ "obj-38", 0 ]
				}

			}
, 			{
				"patchline" : 				{
					"destination" : [ "obj-3", 1 ],
					"source" : [ "obj-4", 0 ]
				}

			}
, 			{
				"patchline" : 				{
					"destination" : [ "obj-2", 0 ],
					"source" : [ "obj-55", 0 ]
				}

			}
, 			{
				"patchline" : 				{
					"destination" : [ "obj-109", 0 ],
					"midpoints" : [ 346.264699459075928, 202.872716116165179, 346.264699459075928, 202.872716116165179 ],
					"source" : [ "obj-8", 0 ]
				}

			}
, 			{
				"patchline" : 				{
					"destination" : [ "obj-109", 0 ],
					"midpoints" : [ 613.176459074020386, 343.872716116165179, 452.458182921043374, 343.872716116165179, 452.458182921043374, 334.872716116165179, 323.458182921043374, 334.872716116165179, 323.458182921043374, 217.872716116165179, 346.264699459075928, 217.872716116165179 ],
					"source" : [ "obj-95", 0 ]
				}

			}
 ],
		"originid" : "pat-145",
		"parameters" : 		{
			"obj-35" : [ "number", "number", 0 ],
			"parameterbanks" : 			{
				"0" : 				{
					"index" : 0,
					"name" : "",
					"parameters" : [ "-", "-", "-", "-", "-", "-", "-", "-" ]
				}

			}
,
			"inherited_shortname" : 1
		}
,
		"dependency_cache" : [  ],
		"autosave" : 0
	}

}
