{
	"patcher" : 	{
		"fileversion" : 1,
		"appversion" : 		{
			"major" : 9,
			"minor" : 0,
			"revision" : 0,
			"architecture" : "x64",
			"modernui" : 1
		}
,
		"classnamespace" : "box",
		"rect" : [ 34.0, 76.0, 1433.0, 843.0 ],
		"openinpresentation" : 1,
		"gridsize" : [ 15.0, 15.0 ],
		"boxes" : [ 			{
				"box" : 				{
					"bgmode" : 0,
					"border" : 0,
					"clickthrough" : 0,
					"embed" : 1,
					"enablehscroll" : 0,
					"enablevscroll" : 0,
					"id" : "obj-17",
					"lockeddragscroll" : 0,
					"lockedsize" : 0,
					"maxclass" : "bpatcher",
					"name" : "betterFilter.maxpat",
					"numinlets" : 1,
					"numoutlets" : 1,
					"offset" : [ 0.0, 0.0 ],
					"outlettype" : [ "signal" ],
					"patcher" : 					{
						"fileversion" : 1,
						"appversion" : 						{
							"major" : 9,
							"minor" : 0,
							"revision" : 0,
							"architecture" : "x64",
							"modernui" : 1
						}
,
						"classnamespace" : "box",
						"rect" : [ 34.0, 76.0, 1433.0, 843.0 ],
						"openinpresentation" : 1,
						"gridsize" : [ 15.0, 15.0 ],
						"boxes" : [ 							{
								"box" : 								{
									"bgcolor" : [ 0.172137149796092, 0.172137100044002, 0.172137113045018, 0.0 ],
									"bgfillcolor_angle" : 270.0,
									"bgfillcolor_autogradient" : 0.0,
									"bgfillcolor_color" : [ 0.172137149796092, 0.172137100044002, 0.172137113045018, 0.0 ],
									"bgfillcolor_color1" : [ 0.172137149796092, 0.172137100044002, 0.172137113045018, 1.0 ],
									"bgfillcolor_color2" : [ 0.172137149796092, 0.172137100044002, 0.172137113045018, 1.0 ],
									"bgfillcolor_proportion" : 0.5,
									"bgfillcolor_type" : "color",
									"fontname" : "Trebuchet MS",
									"id" : "obj-33",
									"items" : [ "allpass", ",", "highpass", ",", "bandstop", ",", "peaknotch", ",", "lowpass", ",", "bandpass", ",", "lowshelf", ",", "highshelf", ",", "highshelf", ",", "resonant" ],
									"maxclass" : "umenu",
									"numinlets" : 1,
									"numoutlets" : 3,
									"outlettype" : [ "int", "", "" ],
									"parameter_enable" : 0,
									"patching_rect" : [ 285.0, 120.0, 100.0, 22.0 ],
									"presentation" : 1,
									"presentation_rect" : [ 165.0, 24.0, 100.0, 22.0 ],
									"varname" : "umenu"
								}

							}
, 							{
								"box" : 								{
									"fontface" : 1,
									"fontname" : "Trebuchet MS",
									"id" : "obj-21",
									"maxclass" : "comment",
									"numinlets" : 1,
									"numoutlets" : 0,
									"patching_rect" : [ 74.074071645736694, 52.370369374752045, 142.0, 20.0 ],
									"presentation" : 1,
									"presentation_rect" : [ 135.0, 166.0, 20.0, 20.0 ],
									"text" : "q"
								}

							}
, 							{
								"box" : 								{
									"fontface" : 1,
									"fontname" : "Trebuchet MS",
									"id" : "obj-19",
									"maxclass" : "comment",
									"numinlets" : 1,
									"numoutlets" : 0,
									"patching_rect" : [ 74.074071645736694, 30.370369374752045, 155.0, 20.0 ],
									"presentation" : 1,
									"presentation_rect" : [ 15.0, 165.0, 38.0, 20.0 ],
									"text" : "gain"
								}

							}
, 							{
								"box" : 								{
									"id" : "obj-8",
									"maxclass" : "newobj",
									"numinlets" : 1,
									"numoutlets" : 1,
									"outlettype" : [ "" ],
									"patching_rect" : [ 488.770039200782776, 330.584675550460815, 69.0, 22.0 ],
									"text" : "sprintf %.2f"
								}

							}
, 							{
								"box" : 								{
									"id" : "obj-7",
									"maxclass" : "newobj",
									"numinlets" : 1,
									"numoutlets" : 1,
									"outlettype" : [ "" ],
									"patching_rect" : [ 488.770039200782776, 365.185173213481903, 67.0, 22.0 ],
									"text" : "append Hz"
								}

							}
, 							{
								"box" : 								{
									"bgcolor" : [ 0.172137149796092, 0.172137100044002, 0.172137113045018, 1.0 ],
									"bgcolor2" : [ 0.172137149796092, 0.172137100044002, 0.172137113045018, 1.0 ],
									"bgfillcolor_angle" : 270.0,
									"bgfillcolor_autogradient" : 0.0,
									"bgfillcolor_color" : [ 0.172137149796092, 0.172137100044002, 0.172137113045018, 0.0 ],
									"bgfillcolor_color1" : [ 0.172137149796092, 0.172137100044002, 0.172137113045018, 1.0 ],
									"bgfillcolor_color2" : [ 0.172137149796092, 0.172137100044002, 0.172137113045018, 1.0 ],
									"bgfillcolor_proportion" : 0.5,
									"bgfillcolor_type" : "color",
									"fontface" : 1,
									"fontname" : "Trebuchet MS",
									"gradient" : 1,
									"id" : "obj-6",
									"maxclass" : "message",
									"numinlets" : 2,
									"numoutlets" : 1,
									"outlettype" : [ "" ],
									"patching_rect" : [ 393.770039200782776, 441.0, 114.0, 22.0 ],
									"presentation" : 1,
									"presentation_rect" : [ 75.0, 24.0, 114.0, 22.0 ],
									"text" : "493.88 Hz"
								}

							}
, 							{
								"box" : 								{
									"id" : "obj-4",
									"maxclass" : "message",
									"numinlets" : 2,
									"numoutlets" : 1,
									"outlettype" : [ "" ],
									"patching_rect" : [ 681.0, 112.0, 72.0, 22.0 ],
									"text" : "autoname 1"
								}

							}
, 							{
								"box" : 								{
									"id" : "obj-3",
									"maxclass" : "newobj",
									"numinlets" : 1,
									"numoutlets" : 4,
									"outlettype" : [ "", "", "", "" ],
									"patching_rect" : [ 681.0, 155.0, 135.0, 22.0 ],
									"restore" : 									{
										"dial" : [ 71 ],
										"filterGain" : [ 2.67 ],
										"filterQ" : [ 0.96 ],
										"filtergraph~" : [ 1, 0, 5, 1, 0, 0, 493.88330078125, 3.670000076293945, 1.960000038146973 ],
										"umenu" : [ 3 ]
									}
,
									"text" : "autopattr @autoname 1",
									"varname" : "u676003683"
								}

							}
, 							{
								"box" : 								{
									"comment" : "",
									"id" : "obj-2",
									"index" : 1,
									"maxclass" : "outlet",
									"numinlets" : 1,
									"numoutlets" : 0,
									"patching_rect" : [ 240.522883415222168, 370.588247001171112, 30.0, 30.0 ]
								}

							}
, 							{
								"box" : 								{
									"comment" : "",
									"id" : "obj-1",
									"index" : 1,
									"maxclass" : "inlet",
									"numinlets" : 0,
									"numoutlets" : 1,
									"outlettype" : [ "signal" ],
									"patching_rect" : [ 240.522883415222168, 259.477132380008698, 30.0, 30.0 ]
								}

							}
, 							{
								"box" : 								{
									"id" : "obj-180",
									"maxclass" : "newobj",
									"numinlets" : 2,
									"numoutlets" : 1,
									"outlettype" : [ "float" ],
									"patching_rect" : [ 582.352924168109894, 164.171118199825287, 29.5, 22.0 ],
									"text" : "+ 1."
								}

							}
, 							{
								"box" : 								{
									"bgcolor" : [ 0.2, 0.2, 0.2, 0.0 ],
									"format" : 6,
									"id" : "obj-181",
									"maxclass" : "flonum",
									"numinlets" : 1,
									"numoutlets" : 2,
									"outlettype" : [ "", "bang" ],
									"parameter_enable" : 0,
									"patching_rect" : [ 582.352924168109894, 138.502669751644135, 50.0, 22.0 ],
									"presentation" : 1,
									"presentation_rect" : [ 165.0, 165.0, 50.0, 22.0 ],
									"textcolor" : [ 0.0, 0.980392156862745, 0.188235294117647, 1.0 ],
									"varname" : "filterQ"
								}

							}
, 							{
								"box" : 								{
									"id" : "obj-178",
									"maxclass" : "newobj",
									"numinlets" : 1,
									"numoutlets" : 1,
									"outlettype" : [ "" ],
									"patching_rect" : [ 488.770039200782776, 164.171118199825287, 32.0, 22.0 ],
									"text" : "mtof"
								}

							}
, 							{
								"box" : 								{
									"bgcolor" : [ 0.2, 0.2, 0.2, 0.0 ],
									"id" : "obj-176",
									"maxclass" : "dial",
									"needlecolor" : [ 0.0, 0.980392156862745, 0.188235294117647, 1.0 ],
									"numinlets" : 1,
									"numoutlets" : 1,
									"outlettype" : [ "float" ],
									"outlinecolor" : [ 0.968627450980392, 0.258823529411765, 1.0, 1.0 ],
									"parameter_enable" : 0,
									"patching_rect" : [ 488.770039200782776, 88.888885974884033, 40.0, 40.0 ],
									"presentation" : 1,
									"presentation_rect" : [ 15.0, 15.0, 40.0, 40.0 ],
									"varname" : "dial"
								}

							}
, 							{
								"box" : 								{
									"id" : "obj-171",
									"maxclass" : "newobj",
									"numinlets" : 2,
									"numoutlets" : 1,
									"outlettype" : [ "float" ],
									"patching_rect" : [ 522.459877789020538, 164.171118199825287, 29.5, 22.0 ],
									"text" : "+ 1."
								}

							}
, 							{
								"box" : 								{
									"bgcolor" : [ 0.2, 0.2, 0.2, 0.0 ],
									"format" : 6,
									"id" : "obj-170",
									"maxclass" : "flonum",
									"minimum" : -1.0,
									"numinlets" : 1,
									"numoutlets" : 2,
									"outlettype" : [ "", "bang" ],
									"parameter_enable" : 0,
									"patching_rect" : [ 522.459877789020538, 138.502669751644135, 50.0, 22.0 ],
									"presentation" : 1,
									"presentation_rect" : [ 60.0, 165.0, 50.0, 22.0 ],
									"textcolor" : [ 0.0, 0.980392156862745, 0.364705882352941, 1.0 ],
									"varname" : "filterGain"
								}

							}
, 							{
								"box" : 								{
									"id" : "obj-151",
									"maxclass" : "newobj",
									"numinlets" : 6,
									"numoutlets" : 1,
									"outlettype" : [ "signal" ],
									"patching_rect" : [ 240.522883415222168, 319.60785323381424, 71.5, 22.0 ],
									"text" : "biquad~"
								}

							}
, 							{
								"box" : 								{
									"bgcolor" : [ 0.125490196078431, 0.125490196078431, 0.125490196078431, 1.0 ],
									"curvecolor" : [ 0.968627450980392, 0.258823529411765, 1.0, 1.0 ],
									"fontface" : 0,
									"hcurvecolor" : [ 0.76078431372549, 0.635294117647059, 0.411764705882353, 1.0 ],
									"id" : "obj-148",
									"ignoreclick" : 1,
									"markercolor" : [ 0.0, 0.980392156862745, 0.188235294117647, 1.0 ],
									"maxclass" : "filtergraph~",
									"nfilters" : 1,
									"numinlets" : 8,
									"numoutlets" : 7,
									"outlettype" : [ "list", "float", "float", "float", "float", "list", "int" ],
									"parameter_enable" : 0,
									"patching_rect" : [ 319.786086916923523, 203.743309557437897, 248.029413282871246, 102.614382326602936 ],
									"presentation" : 1,
									"presentation_rect" : [ 15.0, 57.0, 248.029413282871246, 102.614382326602936 ],
									"setfilter" : [ 0, 5, 1, 0, 0, 493.88330078125, 3.670000076293945, 1.960000038146973, 0.0, 0.0, 0.0, 0.0, 0.0, 0.0 ],
									"textcolor" : [ 0.901960784313726, 0.901960784313726, 0.901960784313726, 0.0 ],
									"varname" : "filtergraph~"
								}

							}
, 							{
								"box" : 								{
									"angle" : 270.0,
									"bgcolor" : [ 0.588235294117647, 0.588235294117647, 0.588235294117647, 1.0 ],
									"bordercolor" : [ 1.0, 0.505882352941176, 0.505882352941176, 1.0 ],
									"id" : "obj-39",
									"maxclass" : "panel",
									"mode" : 0,
									"numinlets" : 1,
									"numoutlets" : 0,
									"patching_rect" : [ 225.0, 75.0, 419.607856392860413, 256.862753212451935 ],
									"proportion" : 0.5
								}

							}
, 							{
								"box" : 								{
									"angle" : 270.0,
									"bgcolor" : [ 0.125490196078431, 0.125490196078431, 0.125490196078431, 1.0 ],
									"id" : "obj-41",
									"maxclass" : "panel",
									"mode" : 0,
									"numinlets" : 1,
									"numoutlets" : 0,
									"patching_rect" : [ 315.0, 135.0, 128.0, 128.0 ],
									"presentation" : 1,
									"presentation_rect" : [ 0.0, 0.0, 285.0, 195.0 ],
									"proportion" : 0.5
								}

							}
 ],
						"lines" : [ 							{
								"patchline" : 								{
									"destination" : [ "obj-151", 0 ],
									"source" : [ "obj-1", 0 ]
								}

							}
, 							{
								"patchline" : 								{
									"destination" : [ "obj-151", 0 ],
									"midpoints" : [ 329.286086916923523, 308.721922338008881, 250.022883415222168, 308.721922338008881 ],
									"source" : [ "obj-148", 0 ]
								}

							}
, 							{
								"patchline" : 								{
									"destination" : [ "obj-2", 0 ],
									"source" : [ "obj-151", 0 ]
								}

							}
, 							{
								"patchline" : 								{
									"destination" : [ "obj-171", 0 ],
									"midpoints" : [ 531.959877789020538, 161.721922338008881, 531.959877789020538, 161.721922338008881 ],
									"source" : [ "obj-170", 0 ]
								}

							}
, 							{
								"patchline" : 								{
									"destination" : [ "obj-148", 6 ],
									"midpoints" : [ 531.959877789020538, 188.721922338008881, 525.597012587955987, 188.721922338008881 ],
									"source" : [ "obj-171", 0 ]
								}

							}
, 							{
								"patchline" : 								{
									"destination" : [ "obj-178", 0 ],
									"midpoints" : [ 498.270039200782776, 137.721922338008881, 498.270039200782776, 137.721922338008881 ],
									"source" : [ "obj-176", 0 ]
								}

							}
, 							{
								"patchline" : 								{
									"destination" : [ "obj-148", 5 ],
									"midpoints" : [ 498.270039200782776, 188.721922338008881, 492.878524976117262, 188.721922338008881 ],
									"order" : 1,
									"source" : [ "obj-178", 0 ]
								}

							}
, 							{
								"patchline" : 								{
									"destination" : [ "obj-8", 0 ],
									"order" : 0,
									"source" : [ "obj-178", 0 ]
								}

							}
, 							{
								"patchline" : 								{
									"destination" : [ "obj-148", 7 ],
									"midpoints" : [ 591.852924168109894, 197.721922338008881, 558.315500199794769, 197.721922338008881 ],
									"source" : [ "obj-180", 0 ]
								}

							}
, 							{
								"patchline" : 								{
									"destination" : [ "obj-180", 0 ],
									"midpoints" : [ 591.852924168109894, 161.721922338008881, 591.852924168109894, 161.721922338008881 ],
									"source" : [ "obj-181", 0 ]
								}

							}
, 							{
								"patchline" : 								{
									"destination" : [ "obj-148", 0 ],
									"source" : [ "obj-33", 1 ]
								}

							}
, 							{
								"patchline" : 								{
									"destination" : [ "obj-3", 0 ],
									"source" : [ "obj-4", 0 ]
								}

							}
, 							{
								"patchline" : 								{
									"destination" : [ "obj-6", 1 ],
									"source" : [ "obj-7", 0 ]
								}

							}
, 							{
								"patchline" : 								{
									"destination" : [ "obj-7", 0 ],
									"source" : [ "obj-8", 0 ]
								}

							}
 ],
						"originid" : "pat-107"
					}
,
					"patching_rect" : [ 105.0, 716.0, 288.0, 198.0 ],
					"presentation" : 1,
					"presentation_rect" : [ 255.0, 163.352939605712891, 288.0, 198.0 ],
					"varname" : "betterFilter",
					"viewvisibility" : 1
				}

			}
, 			{
				"box" : 				{
					"id" : "obj-23",
					"maxclass" : "message",
					"numinlets" : 2,
					"numoutlets" : 1,
					"outlettype" : [ "" ],
					"patching_rect" : [ 1207.640000000000327, 320.46845531463623, 34.0, 22.0 ],
					"text" : "write"
				}

			}
, 			{
				"box" : 				{
					"id" : "obj-24",
					"maxclass" : "message",
					"numinlets" : 2,
					"numoutlets" : 1,
					"outlettype" : [ "" ],
					"patching_rect" : [ 1249.0, 291.46845531463623, 72.0, 22.0 ],
					"text" : "autoname 1"
				}

			}
, 			{
				"box" : 				{
					"id" : "obj-20",
					"maxclass" : "message",
					"numinlets" : 2,
					"numoutlets" : 1,
					"outlettype" : [ "" ],
					"patching_rect" : [ 1500.0, 320.46845531463623, 45.0, 22.0 ],
					"text" : "store 2"
				}

			}
, 			{
				"box" : 				{
					"id" : "obj-19",
					"maxclass" : "message",
					"numinlets" : 2,
					"numoutlets" : 1,
					"outlettype" : [ "" ],
					"patching_rect" : [ 1440.0, 320.46845531463623, 45.0, 22.0 ],
					"text" : "store 1"
				}

			}
, 			{
				"box" : 				{
					"id" : "obj-12",
					"maxclass" : "newobj",
					"numinlets" : 1,
					"numoutlets" : 1,
					"outlettype" : [ "" ],
					"patching_rect" : [ 1249.0, 367.46845531463623, 302.0, 22.0 ],
					"saved_object_attributes" : 					{
						"client_rect" : [ 518, 187, 1049, 493 ],
						"parameter_enable" : 0,
						"parameter_mappable" : 0,
						"storage_rect" : [ 550, 201, 1001, 329 ]
					}
,
					"text" : "pattrstorage @greedy 1 @savemode 2 @autorestore 1",
					"varname" : "u812000404"
				}

			}
, 			{
				"box" : 				{
					"id" : "obj-9",
					"maxclass" : "newobj",
					"numinlets" : 1,
					"numoutlets" : 4,
					"outlettype" : [ "", "", "", "" ],
					"patching_rect" : [ 1249.0, 320.46845531463623, 135.0, 22.0 ],
					"restore" : 					{
						"FMAmt" : [ 59 ],
						"FMFreq" : [ 34 ],
						"attrui" : [ "mode", 1 ],
						"attrui[1]" : [ "clickadd", 0 ],
						"button" : [ 0.0 ],
						"function" : [ 108.0, 0.0, 1.0, 0.0, 0.0, 0, 0.0, 0.0, 1.0, 0, -0.655, 107.999239930847267, 0.0, 0, -0.52755905511811, "curve" ],
						"mixer" : [ 0.494895639604536, 0.673548087991517, 0.438180576624541 ],
						"pitch" : [ 155.0 ],
						"pitchAmt" : [ 138.0 ],
						"pitchEnvCurve" : [ 30 ],
						"pitchEnvLength" : [ 108 ]
					}
,
					"text" : "autopattr @autoname 1",
					"varname" : "u841000859"
				}

			}
, 			{
				"box" : 				{
					"id" : "obj-36",
					"maxclass" : "newobj",
					"numinlets" : 2,
					"numoutlets" : 1,
					"outlettype" : [ "signal" ],
					"patching_rect" : [ 710.526309013366699, 439.0, 33.0, 22.0 ],
					"text" : "+~ 1"
				}

			}
, 			{
				"box" : 				{
					"id" : "obj-35",
					"maxclass" : "newobj",
					"numinlets" : 2,
					"numoutlets" : 1,
					"outlettype" : [ "signal" ],
					"patching_rect" : [ 623.41464900970459, 439.0, 29.5, 22.0 ],
					"text" : "*~"
				}

			}
, 			{
				"box" : 				{
					"format" : 6,
					"id" : "obj-29",
					"maxclass" : "flonum",
					"numinlets" : 1,
					"numoutlets" : 2,
					"outlettype" : [ "", "bang" ],
					"parameter_enable" : 0,
					"patching_rect" : [ 344.0, 137.0, 50.0, 22.0 ],
					"presentation" : 1,
					"presentation_rect" : [ 486.617639780044556, 90.0, 50.0, 22.0 ],
					"varname" : "pitch"
				}

			}
, 			{
				"box" : 				{
					"id" : "obj-10",
					"maxclass" : "button",
					"numinlets" : 1,
					"numoutlets" : 1,
					"outlettype" : [ "bang" ],
					"parameter_enable" : 0,
					"patching_rect" : [ 292.0, 136.0, 24.0, 24.0 ],
					"presentation" : 1,
					"presentation_rect" : [ 114.860271692276001, 209.147060394287109, 24.0, 24.0 ],
					"varname" : "button"
				}

			}
, 			{
				"box" : 				{
					"id" : "obj-16",
					"maxclass" : "newobj",
					"numinlets" : 3,
					"numoutlets" : 1,
					"outlettype" : [ "" ],
					"patching_rect" : [ 345.0, 450.0, 48.0, 22.0 ],
					"text" : "pak f f f"
				}

			}
, 			{
				"box" : 				{
					"id" : "obj-6",
					"maxclass" : "newobj",
					"numinlets" : 2,
					"numoutlets" : 1,
					"outlettype" : [ "signal" ],
					"patching_rect" : [ 710.526309013366699, 348.855424046516418, 29.5, 22.0 ],
					"text" : "*~"
				}

			}
, 			{
				"box" : 				{
					"bgcolor" : [ 0.125490196078431, 0.125490196078431, 0.125490196078431, 0.0 ],
					"format" : 6,
					"id" : "obj-15",
					"maxclass" : "flonum",
					"numinlets" : 1,
					"numoutlets" : 2,
					"outlettype" : [ "", "bang" ],
					"parameter_enable" : 0,
					"patching_rect" : [ 710.526309013366699, 182.840241372585297, 50.0, 22.0 ],
					"presentation" : 1,
					"presentation_rect" : [ 486.617639780044556, 62.781811684370041, 50.0, 22.0 ],
					"varname" : "pitchAmt"
				}

			}
, 			{
				"box" : 				{
					"id" : "obj-1",
					"maxclass" : "newobj",
					"numinlets" : 1,
					"numoutlets" : 1,
					"outlettype" : [ "signal" ],
					"patching_rect" : [ 624.457835555076599, 299.468082964420319, 31.0, 22.0 ],
					"text" : "sig~"
				}

			}
, 			{
				"box" : 				{
					"id" : "obj-8",
					"maxclass" : "newobj",
					"numinlets" : 6,
					"numoutlets" : 1,
					"outlettype" : [ "" ],
					"patching_rect" : [ 1130.640000000000327, 83.431954801082611, 107.0, 22.0 ],
					"text" : "scale 0. 127. -1. 1."
				}

			}
, 			{
				"box" : 				{
					"id" : "obj-4",
					"maxclass" : "newobj",
					"numinlets" : 1,
					"numoutlets" : 1,
					"outlettype" : [ "" ],
					"patching_rect" : [ 1130.640000000000327, 114.79290235042572, 111.0, 22.0 ],
					"text" : "prepend setcurve 2"
				}

			}
, 			{
				"box" : 				{
					"bgcolor" : [ 0.125490196078431, 0.125490196078431, 0.125490196078431, 0.0 ],
					"id" : "obj-2",
					"maxclass" : "dial",
					"numinlets" : 1,
					"numoutlets" : 1,
					"outlettype" : [ "float" ],
					"parameter_enable" : 0,
					"patching_rect" : [ 1130.640000000000327, 27.409631252288818, 40.0, 40.0 ],
					"presentation" : 1,
					"presentation_rect" : [ 491.764698505401611, 20.870047777891159, 40.0, 40.0 ],
					"varname" : "pitchEnvCurve"
				}

			}
, 			{
				"box" : 				{
					"bgcolor" : [ 0.172137149796092, 0.172137100044002, 0.172137113045018, 1.0 ],
					"bgcolor2" : [ 0.172137149796092, 0.172137100044002, 0.172137113045018, 1.0 ],
					"bgfillcolor_angle" : 270.0,
					"bgfillcolor_autogradient" : 0.0,
					"bgfillcolor_color" : [ 0.172137149796092, 0.172137100044002, 0.172137113045018, 0.0 ],
					"bgfillcolor_color1" : [ 0.172137149796092, 0.172137100044002, 0.172137113045018, 1.0 ],
					"bgfillcolor_color2" : [ 0.172137149796092, 0.172137100044002, 0.172137113045018, 1.0 ],
					"bgfillcolor_proportion" : 0.5,
					"bgfillcolor_type" : "color",
					"fontface" : 1,
					"fontsize" : 20.0,
					"gradient" : 1,
					"id" : "obj-148",
					"maxclass" : "message",
					"numinlets" : 2,
					"numoutlets" : 1,
					"outlettype" : [ "" ],
					"patching_rect" : [ 798.926677703857422, 531.176492750644684, 72.0, 31.0 ],
					"presentation" : 1,
					"presentation_rect" : [ 110.631578803062439, 165.0, 41.0, 31.0 ],
					"text" : "FM",
					"textjustification" : 1
				}

			}
, 			{
				"box" : 				{
					"id" : "obj-140",
					"maxclass" : "newobj",
					"numinlets" : 2,
					"numoutlets" : 1,
					"outlettype" : [ "signal" ],
					"patching_rect" : [ 504.5751793384552, 600.000018954277039, 29.5, 22.0 ],
					"text" : "*~"
				}

			}
, 			{
				"box" : 				{
					"comment" : "",
					"id" : "obj-139",
					"index" : 0,
					"maxclass" : "outlet",
					"numinlets" : 1,
					"numoutlets" : 0,
					"patching_rect" : [ 232.0, 1135.0, 30.0, 30.0 ]
				}

			}
, 			{
				"box" : 				{
					"id" : "obj-138",
					"maxclass" : "newobj",
					"numinlets" : 2,
					"numoutlets" : 1,
					"outlettype" : [ "int" ],
					"patching_rect" : [ 367.0, 1015.0, 29.5, 22.0 ],
					"text" : "int"
				}

			}
, 			{
				"box" : 				{
					"bgmode" : 0,
					"border" : 0,
					"clickthrough" : 0,
					"enablehscroll" : 0,
					"enablevscroll" : 0,
					"id" : "obj-133",
					"lockeddragscroll" : 0,
					"lockedsize" : 0,
					"maxclass" : "bpatcher",
					"name" : "softClipper.maxpat",
					"numinlets" : 2,
					"numoutlets" : 1,
					"offset" : [ 0.0, 0.0 ],
					"outlettype" : [ "signal" ],
					"patching_rect" : [ 232.0, 1030.0, 100.000003159046173, 84.313728153705597 ],
					"varname" : "softClipper",
					"viewvisibility" : 1
				}

			}
, 			{
				"box" : 				{
					"id" : "obj-132",
					"maxclass" : "newobj",
					"numinlets" : 6,
					"numoutlets" : 1,
					"outlettype" : [ "" ],
					"patching_rect" : [ 405.0, 840.0, 103.0, 22.0 ],
					"text" : "scale 0. 1. 0. 127."
				}

			}
, 			{
				"box" : 				{
					"id" : "obj-130",
					"maxclass" : "newobj",
					"numinlets" : 1,
					"numoutlets" : 1,
					"outlettype" : [ "" ],
					"patching_rect" : [ 868.4939786195755, 74.397584795951843, 68.0, 22.0 ],
					"text" : "append ms"
				}

			}
, 			{
				"box" : 				{
					"id" : "obj-128",
					"maxclass" : "newobj",
					"numinlets" : 2,
					"numoutlets" : 1,
					"outlettype" : [ "int" ],
					"patching_rect" : [ 863.674701333045959, 44.277101755142212, 29.5, 22.0 ],
					"text" : "int"
				}

			}
, 			{
				"box" : 				{
					"bgcolor" : [ 0.172137149796092, 0.172137100044002, 0.172137113045018, 0.0 ],
					"bgcolor2" : [ 0.172137149796092, 0.172137100044002, 0.172137113045018, 0.0 ],
					"bgfillcolor_angle" : 270.0,
					"bgfillcolor_autogradient" : 0.0,
					"bgfillcolor_color" : [ 0.172137149796092, 0.172137100044002, 0.172137113045018, 0.0 ],
					"bgfillcolor_color1" : [ 0.172137149796092, 0.172137100044002, 0.172137113045018, 0.0 ],
					"bgfillcolor_color2" : [ 0.172137149796092, 0.172137100044002, 0.172137113045018, 1.0 ],
					"bgfillcolor_proportion" : 0.5,
					"bgfillcolor_type" : "color",
					"gradient" : 1,
					"id" : "obj-123",
					"maxclass" : "message",
					"numinlets" : 2,
					"numoutlets" : 1,
					"outlettype" : [ "" ],
					"patching_rect" : [ 856.445785403251648, 108.13252580165863, 77.647093772888184, 22.0 ],
					"presentation" : 1,
					"presentation_rect" : [ 429.298491239547729, 62.781811684370041, 55.319148540496826, 22.0 ],
					"text" : "108 ms"
				}

			}
, 			{
				"box" : 				{
					"id" : "obj-115",
					"maxclass" : "comment",
					"numinlets" : 1,
					"numoutlets" : 0,
					"patching_rect" : [ 931.619454264640808, 523.285624355077744, 76.0, 20.0 ],
					"text" : "FM freq mult"
				}

			}
, 			{
				"box" : 				{
					"id" : "obj-114",
					"maxclass" : "newobj",
					"numinlets" : 6,
					"numoutlets" : 1,
					"outlettype" : [ "" ],
					"patching_rect" : [ 931.619454264640808, 588.345867723226547, 110.0, 22.0 ],
					"text" : "scale 0. 127. 0. 50."
				}

			}
, 			{
				"box" : 				{
					"bgcolor" : [ 0.125490196078431, 0.125490196078431, 0.125490196078431, 0.01 ],
					"id" : "obj-113",
					"maxclass" : "dial",
					"needlecolor" : [ 1.0, 0.611764705882353, 0.0, 1.0 ],
					"numinlets" : 1,
					"numoutlets" : 1,
					"outlettype" : [ "float" ],
					"outlinecolor" : [ 0.250980392156863, 0.286274509803922, 1.0, 1.0 ],
					"parameter_enable" : 0,
					"patching_rect" : [ 931.619454264640808, 543.767552822828293, 40.0, 40.0 ],
					"presentation" : 1,
					"presentation_rect" : [ 180.0, 165.0, 40.0, 40.0 ],
					"varname" : "FMFreq"
				}

			}
, 			{
				"box" : 				{
					"id" : "obj-112",
					"maxclass" : "newobj",
					"numinlets" : 1,
					"numoutlets" : 1,
					"outlettype" : [ "signal" ],
					"patching_rect" : [ 931.619454264640808, 632.924182623624802, 31.0, 22.0 ],
					"text" : "sig~"
				}

			}
, 			{
				"box" : 				{
					"id" : "obj-110",
					"maxclass" : "newobj",
					"numinlets" : 2,
					"numoutlets" : 1,
					"outlettype" : [ "signal" ],
					"patching_rect" : [ 914.751983761787415, 678.707316845655441, 35.70213258266449, 22.0 ],
					"text" : "*~"
				}

			}
, 			{
				"box" : 				{
					"id" : "obj-108",
					"maxclass" : "comment",
					"numinlets" : 1,
					"numoutlets" : 0,
					"patching_rect" : [ 783.426677703857422, 658.225388377904892, 60.000003755092621, 20.0 ],
					"text" : "FM amt"
				}

			}
, 			{
				"box" : 				{
					"id" : "obj-106",
					"maxclass" : "newobj",
					"numinlets" : 6,
					"numoutlets" : 1,
					"outlettype" : [ "" ],
					"patching_rect" : [ 783.426677703857422, 723.285631746053696, 103.0, 22.0 ],
					"text" : "scale 0. 127. 0. 4."
				}

			}
, 			{
				"box" : 				{
					"bgcolor" : [ 0.156862745098039, 0.156862745098039, 0.156862745098039, 0.0 ],
					"id" : "obj-105",
					"maxclass" : "dial",
					"needlecolor" : [ 1.0, 0.976470588235294, 0.27843137254902, 1.0 ],
					"numinlets" : 1,
					"numoutlets" : 1,
					"outlettype" : [ "float" ],
					"outlinecolor" : [ 0.384313725490196, 0.0, 1.0, 1.0 ],
					"parameter_enable" : 0,
					"patching_rect" : [ 783.426677703857422, 681.285631746053696, 40.0, 40.0 ],
					"presentation" : 1,
					"presentation_rect" : [ 40.053191542625427, 165.0, 40.0, 40.0 ],
					"varname" : "FMAmt"
				}

			}
, 			{
				"box" : 				{
					"id" : "obj-104",
					"maxclass" : "newobj",
					"numinlets" : 2,
					"numoutlets" : 1,
					"outlettype" : [ "signal" ],
					"patching_rect" : [ 772.583303809165955, 769.068765968084335, 29.5, 22.0 ],
					"text" : "*~"
				}

			}
, 			{
				"box" : 				{
					"id" : "obj-100",
					"maxclass" : "newobj",
					"numinlets" : 2,
					"numoutlets" : 1,
					"outlettype" : [ "signal" ],
					"patching_rect" : [ 914.751983761787415, 723.285631746053696, 43.0, 22.0 ],
					"text" : "cycle~"
				}

			}
, 			{
				"box" : 				{
					"id" : "obj-99",
					"maxclass" : "comment",
					"numinlets" : 1,
					"numoutlets" : 0,
					"patching_rect" : [ 270.0, 451.0, 61.016950607299805, 20.0 ],
					"text" : "Mixer"
				}

			}
, 			{
				"box" : 				{
					"id" : "obj-96",
					"maxclass" : "newobj",
					"numinlets" : 2,
					"numoutlets" : 1,
					"outlettype" : [ "signal" ],
					"patching_rect" : [ 623.41464900970459, 388.558826208114624, 29.5, 22.0 ],
					"text" : "+~"
				}

			}
, 			{
				"box" : 				{
					"id" : "obj-92",
					"maxclass" : "message",
					"numinlets" : 2,
					"numoutlets" : 1,
					"outlettype" : [ "" ],
					"patching_rect" : [ 1033.55422568321228, 302.108436584472656, 35.0, 22.0 ],
					"text" : "clear"
				}

			}
, 			{
				"box" : 				{
					"id" : "obj-90",
					"maxclass" : "message",
					"numinlets" : 2,
					"numoutlets" : 1,
					"outlettype" : [ "" ],
					"patching_rect" : [ 795.0, 173.192769169807434, 81.0, 22.0 ],
					"text" : "setdomain $1"
				}

			}
, 			{
				"box" : 				{
					"id" : "obj-89",
					"maxclass" : "newobj",
					"numinlets" : 6,
					"numoutlets" : 1,
					"outlettype" : [ "" ],
					"patching_rect" : [ 795.0, 149.096382737159729, 117.0, 22.0 ],
					"text" : "scale 0. 500. 0. 500."
				}

			}
, 			{
				"box" : 				{
					"bgcolor" : [ 0.125490196078431, 0.125490196078431, 0.125490196078431, 0.0 ],
					"id" : "obj-88",
					"maxclass" : "dial",
					"numinlets" : 1,
					"numoutlets" : 1,
					"outlettype" : [ "float" ],
					"parameter_enable" : 0,
					"patching_rect" : [ 795.266292572021484, 88.165682733058929, 40.0, 40.0 ],
					"presentation" : 1,
					"presentation_rect" : [ 435.0, 20.870047777891159, 40.0, 40.0 ],
					"size" : 501.0,
					"varname" : "pitchEnvLength"
				}

			}
, 			{
				"box" : 				{
					"id" : "obj-83",
					"maxclass" : "newobj",
					"numinlets" : 3,
					"numoutlets" : 2,
					"outlettype" : [ "signal", "bang" ],
					"patching_rect" : [ 855.240966081619263, 347.891570806503296, 45.0, 22.0 ],
					"text" : "curve~"
				}

			}
, 			{
				"box" : 				{
					"addpoints_with_curve" : [ 0.0, 0.0, 0, 0.0, 0.0, 1.0, 0, -0.655, 107.999239930847267, 0.0, 0, -0.52755905511811 ],
					"bgcolor" : [ 0.125490196078431, 0.125490196078431, 0.125490196078431, 1.0 ],
					"classic_curve" : 1,
					"clickadd" : 0,
					"domain" : 108.0,
					"id" : "obj-82",
					"maxclass" : "function",
					"mode" : 1,
					"numinlets" : 1,
					"numoutlets" : 4,
					"outlettype" : [ "float", "", "", "bang" ],
					"parameter_enable" : 0,
					"patching_rect" : [ 795.0, 225.0, 200.0, 100.0 ],
					"presentation" : 1,
					"presentation_rect" : [ 282.941173076629639, 14.987694948911667, 254.651153683662415, 141.497480511665344 ],
					"varname" : "function"
				}

			}
, 			{
				"box" : 				{
					"id" : "obj-79",
					"maxclass" : "newobj",
					"numinlets" : 2,
					"numoutlets" : 1,
					"outlettype" : [ "signal" ],
					"patching_rect" : [ 283.5, 675.0, 29.5, 22.0 ],
					"text" : "*~"
				}

			}
, 			{
				"box" : 				{
					"id" : "obj-76",
					"maxclass" : "newobj",
					"numinlets" : 2,
					"numoutlets" : 1,
					"outlettype" : [ "signal" ],
					"patching_rect" : [ 105.0, 675.0, 29.5, 22.0 ],
					"text" : "*~"
				}

			}
, 			{
				"box" : 				{
					"id" : "obj-72",
					"maxclass" : "newobj",
					"numinlets" : 1,
					"numoutlets" : 3,
					"outlettype" : [ "float", "float", "float" ],
					"patching_rect" : [ 270.0, 630.0, 67.0, 22.0 ],
					"text" : "unpack f f f"
				}

			}
, 			{
				"box" : 				{
					"candicane2" : [ 0.262745098039216, 0.43921568627451, 1.0, 1.0 ],
					"contdata" : 1,
					"id" : "obj-59",
					"maxclass" : "multislider",
					"numinlets" : 1,
					"numoutlets" : 2,
					"orientation" : 0,
					"outlettype" : [ "", "" ],
					"parameter_enable" : 0,
					"patching_rect" : [ 270.0, 489.000018954277039, 150.0, 133.0 ],
					"presentation" : 1,
					"presentation_rect" : [ 15.131578803062439, 286.184207797050476, 232.0, 75.0 ],
					"setminmax" : [ 0.0, 1.0 ],
					"size" : 3,
					"slidercolor" : [ 0.392156862745098, 0.964705882352941, 0.443137254901961, 1.0 ],
					"varname" : "mixer"
				}

			}
, 			{
				"box" : 				{
					"id" : "obj-49",
					"maxclass" : "comment",
					"numinlets" : 1,
					"numoutlets" : 0,
					"patching_rect" : [ 510.0, 350.060243368148804, 75.261422753334045, 20.0 ],
					"text" : "phase reset"
				}

			}
, 			{
				"box" : 				{
					"id" : "obj-47",
					"maxclass" : "message",
					"numinlets" : 2,
					"numoutlets" : 1,
					"outlettype" : [ "" ],
					"patching_rect" : [ 584.698797941207886, 348.855424046516418, 29.5, 22.0 ],
					"text" : "0"
				}

			}
, 			{
				"box" : 				{
					"id" : "obj-34",
					"maxclass" : "newobj",
					"numinlets" : 5,
					"numoutlets" : 5,
					"outlettype" : [ "", "", "", "", "" ],
					"patching_rect" : [ 195.0, 190.0, 152.0, 22.0 ],
					"text" : "route bang float bang bang"
				}

			}
, 			{
				"box" : 				{
					"id" : "obj-30",
					"maxclass" : "newobj",
					"numinlets" : 1,
					"numoutlets" : 1,
					"outlettype" : [ "signal" ],
					"patching_rect" : [ 624.457835555076599, 348.855424046516418, 39.0, 22.0 ],
					"text" : "mtof~"
				}

			}
, 			{
				"box" : 				{
					"id" : "obj-26",
					"maxclass" : "newobj",
					"numinlets" : 2,
					"numoutlets" : 1,
					"outlettype" : [ "signal" ],
					"patching_rect" : [ 622.41464900970459, 468.0, 52.0, 22.0 ],
					"text" : "phasor~"
				}

			}
, 			{
				"box" : 				{
					"id" : "obj-25",
					"maxclass" : "newobj",
					"numinlets" : 2,
					"numoutlets" : 1,
					"outlettype" : [ "signal" ],
					"patching_rect" : [ 598.41464900970459, 561.767552822828293, 43.0, 22.0 ],
					"text" : "cycle~"
				}

			}
, 			{
				"box" : 				{
					"id" : "obj-14",
					"maxclass" : "newobj",
					"numinlets" : 2,
					"numoutlets" : 1,
					"outlettype" : [ "signal" ],
					"patching_rect" : [ 105.0, 525.0, 29.5, 22.0 ],
					"text" : "*~"
				}

			}
, 			{
				"box" : 				{
					"id" : "obj-13",
					"maxclass" : "comment",
					"numinlets" : 1,
					"numoutlets" : 0,
					"patching_rect" : [ 195.0, 108.0, 118.0, 20.0 ],
					"text" : "Waits for a bang"
				}

			}
, 			{
				"box" : 				{
					"bgmode" : 0,
					"border" : 0,
					"clickthrough" : 0,
					"embed" : 1,
					"enablehscroll" : 0,
					"enablevscroll" : 0,
					"id" : "obj-11",
					"lockeddragscroll" : 0,
					"lockedsize" : 0,
					"maxclass" : "bpatcher",
					"name" : "volumeEnvelop.maxpat",
					"numinlets" : 1,
					"numoutlets" : 2,
					"offset" : [ 0.0, 0.0 ],
					"outlettype" : [ "signal", "" ],
					"patcher" : 					{
						"fileversion" : 1,
						"appversion" : 						{
							"major" : 9,
							"minor" : 0,
							"revision" : 0,
							"architecture" : "x64",
							"modernui" : 1
						}
,
						"classnamespace" : "box",
						"rect" : [ 34.0, 76.0, 1033.0, 843.0 ],
						"openinpresentation" : 1,
						"gridsize" : [ 15.0, 15.0 ],
						"boxes" : [ 							{
								"box" : 								{
									"id" : "obj-5",
									"maxclass" : "newobj",
									"numinlets" : 1,
									"numoutlets" : 4,
									"outlettype" : [ "", "", "", "" ],
									"patching_rect" : [ 776.0, 94.117645263671875, 135.0, 22.0 ],
									"restore" : 									{
										"attrui" : [ "mode", 1 ],
										"attrui[1]" : [ "clickadd", 0 ],
										"envCurve" : [ 49 ],
										"envFunction" : [ 123.0, 0.0, 1.0, 0.0, 0.0, 0, 0.0, 3.774468348336123, 1.0, 0, 0.0, 122.999990526828924, 0.0, 0, -0.228346456692913, "curve" ],
										"envLength" : [ 123 ]
									}
,
									"text" : "autopattr @autoname 1",
									"varname" : "u253001168"
								}

							}
, 							{
								"box" : 								{
									"id" : "obj-7",
									"maxclass" : "newobj",
									"numinlets" : 3,
									"numoutlets" : 3,
									"outlettype" : [ "", "", "" ],
									"patching_rect" : [ 336.764699459075928, 59.0, 82.0, 22.0 ],
									"text" : "route bang int"
								}

							}
, 							{
								"box" : 								{
									"comment" : "",
									"id" : "obj-1",
									"index" : 2,
									"maxclass" : "outlet",
									"numinlets" : 1,
									"numoutlets" : 0,
									"patching_rect" : [ 648.294106006622314, 147.058820724487305, 30.0, 30.0 ]
								}

							}
, 							{
								"box" : 								{
									"bgcolor" : [ 0.2, 0.2, 0.2, 0.01 ],
									"id" : "obj-35",
									"maxclass" : "number",
									"numinlets" : 1,
									"numoutlets" : 2,
									"outlettype" : [ "", "bang" ],
									"parameter_enable" : 1,
									"patching_rect" : [ 510.294107913970947, 113.970586061477661, 50.0, 22.0 ],
									"presentation" : 1,
									"presentation_rect" : [ 207.207207083702087, 47.747747719287872, 44.385025441646576, 22.0 ],
									"saved_attribute_attributes" : 									{
										"valueof" : 										{
											"parameter_invisible" : 1,
											"parameter_longname" : "number",
											"parameter_modmode" : 0,
											"parameter_osc_name" : "<default>",
											"parameter_shortname" : "number",
											"parameter_type" : 3
										}

									}
,
									"textcolor" : [ 1.0, 0.909803921568627, 0.584313725490196, 1.0 ],
									"varname" : "envLength"
								}

							}
, 							{
								"box" : 								{
									"bgcolor" : [ 0.2, 0.2, 0.2, 0.0 ],
									"id" : "obj-106",
									"maxclass" : "dial",
									"needlecolor" : [ 1.0, 0.0, 0.0, 1.0 ],
									"numinlets" : 1,
									"numoutlets" : 1,
									"outlettype" : [ "float" ],
									"outlinecolor" : [ 1.0, 1.0, 1.0, 1.0 ],
									"parameter_enable" : 0,
									"patching_rect" : [ 603.676459074020386, 234.558819055557251, 40.0, 40.0 ],
									"presentation" : 1,
									"presentation_rect" : [ 207.207207083702087, 5.855855852365494, 40.0, 40.0 ],
									"style" : "Audiomix",
									"varname" : "envCurve"
								}

							}
, 							{
								"box" : 								{
									"id" : "obj-212",
									"maxclass" : "message",
									"numinlets" : 2,
									"numoutlets" : 1,
									"outlettype" : [ "" ],
									"patching_rect" : [ 579.41175365447998, 147.058820724487305, 50.0, 22.0 ],
									"text" : "123 ms"
								}

							}
, 							{
								"box" : 								{
									"id" : "obj-210",
									"maxclass" : "newobj",
									"numinlets" : 1,
									"numoutlets" : 1,
									"outlettype" : [ "" ],
									"patching_rect" : [ 610.294106006622314, 111.764703750610352, 68.0, 22.0 ],
									"text" : "append ms"
								}

							}
, 							{
								"box" : 								{
									"fontname" : "Microsoft PhagsPa Bold",
									"id" : "obj-207",
									"maxclass" : "comment",
									"numinlets" : 1,
									"numoutlets" : 0,
									"patching_rect" : [ 336.764699459075928, 113.970586061477661, 159.0, 22.0 ],
									"presentation" : 1,
									"presentation_rect" : [ 92.342342287302017, 5.855855852365494, 64.0, 22.0 ],
									"text" : "Vol. env.",
									"textcolor" : [ 1.0, 0.909803921568627, 0.584313725490196, 1.0 ]
								}

							}
, 							{
								"box" : 								{
									"addpoints_with_curve" : [ 0.0, 0.0, 0, 0.0, 3.774468348336123, 1.0, 0, 0.0, 122.999990526828924, 0.0, 0, -0.228346456692913 ],
									"bgcolor" : [ 0.125490196078431, 0.125490196078431, 0.125490196078431, 1.0 ],
									"classic_curve" : 1,
									"clickadd" : 0,
									"domain" : 123.0,
									"id" : "obj-109",
									"linecolor" : [ 1.0, 0.890196078431372, 0.486274509803922, 1.0 ],
									"maxclass" : "function",
									"mode" : 1,
									"numinlets" : 1,
									"numoutlets" : 4,
									"outlettype" : [ "float", "", "", "bang" ],
									"parameter_enable" : 0,
									"patching_rect" : [ 336.764699459075928, 222.794113397598267, 200.0, 100.0 ],
									"presentation" : 1,
									"presentation_rect" : [ 0.0, -0.900900900363922, 255.151497662067413, 144.000001788139343 ],
									"varname" : "envFunction"
								}

							}
, 							{
								"box" : 								{
									"id" : "obj-100",
									"maxclass" : "newobj",
									"numinlets" : 6,
									"numoutlets" : 1,
									"outlettype" : [ "" ],
									"patching_rect" : [ 603.676459074020386, 284.558818101882935, 101.0, 22.0 ],
									"text" : "scale 0 127 -1. 1."
								}

							}
, 							{
								"box" : 								{
									"id" : "obj-95",
									"maxclass" : "message",
									"numinlets" : 2,
									"numoutlets" : 1,
									"outlettype" : [ "" ],
									"patching_rect" : [ 603.676459074020386, 319.852935075759888, 81.0, 22.0 ],
									"text" : "setcurve 2 $1"
								}

							}
, 							{
								"box" : 								{
									"id" : "obj-23",
									"maxclass" : "message",
									"numinlets" : 2,
									"numoutlets" : 1,
									"outlettype" : [ "" ],
									"patching_rect" : [ 510.294107913970947, 184.558820009231567, 81.0, 22.0 ],
									"text" : "setdomain $1"
								}

							}
, 							{
								"box" : 								{
									"id" : "obj-25",
									"maxclass" : "newobj",
									"numinlets" : 3,
									"numoutlets" : 2,
									"outlettype" : [ "signal", "bang" ],
									"patching_rect" : [ 396.764699459075928, 346.15384966135025, 45.0, 22.0 ],
									"text" : "curve~"
								}

							}
, 							{
								"box" : 								{
									"attr" : "clickadd",
									"id" : "obj-8",
									"maxclass" : "attrui",
									"numinlets" : 1,
									"numoutlets" : 1,
									"outlettype" : [ "" ],
									"parameter_enable" : 0,
									"patching_rect" : [ 336.764699459075928, 184.558820009231567, 150.0, 22.0 ],
									"varname" : "attrui[1]"
								}

							}
, 							{
								"box" : 								{
									"attr" : "mode",
									"id" : "obj-38",
									"maxclass" : "attrui",
									"numinlets" : 1,
									"numoutlets" : 1,
									"outlettype" : [ "" ],
									"parameter_enable" : 0,
									"patching_rect" : [ 336.764699459075928, 147.058820724487305, 150.0, 22.0 ],
									"varname" : "attrui"
								}

							}
, 							{
								"box" : 								{
									"angle" : 270.0,
									"bgcolor" : [ 0.764705882352941, 0.819607843137255, 0.572549019607843, 1.0 ],
									"bordercolor" : [ 0.972549019607843, 1.0, 0.32156862745098, 1.0 ],
									"id" : "obj-33",
									"maxclass" : "panel",
									"mode" : 0,
									"numinlets" : 1,
									"numoutlets" : 0,
									"patching_rect" : [ 314.705876350402832, 94.117645263671875, 423.52942943572998, 384.117663085460663 ],
									"proportion" : 0.5
								}

							}
, 							{
								"box" : 								{
									"comment" : "",
									"hint" : "volumeEnvelop: trigger the envelop generator with a bang",
									"id" : "obj-55",
									"index" : 1,
									"maxclass" : "inlet",
									"numinlets" : 0,
									"numoutlets" : 1,
									"outlettype" : [ "" ],
									"patching_rect" : [ 336.764699459075928, 13.0, 30.0, 30.0 ]
								}

							}
, 							{
								"box" : 								{
									"comment" : "",
									"id" : "obj-56",
									"index" : 1,
									"maxclass" : "outlet",
									"numinlets" : 1,
									"numoutlets" : 0,
									"patching_rect" : [ 396.764699459075928, 508.547013700008392, 30.0, 30.0 ]
								}

							}
 ],
						"lines" : [ 							{
								"patchline" : 								{
									"destination" : [ "obj-95", 0 ],
									"midpoints" : [ 613.176459074020386, 307.872716116165179, 613.176459074020386, 307.872716116165179 ],
									"source" : [ "obj-100", 0 ]
								}

							}
, 							{
								"patchline" : 								{
									"destination" : [ "obj-100", 0 ],
									"midpoints" : [ 613.176459074020386, 274.872716116165179, 613.176459074020386, 274.872716116165179 ],
									"source" : [ "obj-106", 0 ]
								}

							}
, 							{
								"patchline" : 								{
									"destination" : [ "obj-25", 0 ],
									"midpoints" : [ 406.598032792409299, 331.872716116165179, 406.264699459075928, 331.872716116165179 ],
									"source" : [ "obj-109", 1 ]
								}

							}
, 							{
								"patchline" : 								{
									"destination" : [ "obj-1", 0 ],
									"order" : 0,
									"source" : [ "obj-210", 0 ]
								}

							}
, 							{
								"patchline" : 								{
									"destination" : [ "obj-212", 1 ],
									"midpoints" : [ 619.794106006622314, 136.872716116165179, 619.91175365447998, 136.872716116165179 ],
									"order" : 1,
									"source" : [ "obj-210", 0 ]
								}

							}
, 							{
								"patchline" : 								{
									"destination" : [ "obj-109", 0 ],
									"midpoints" : [ 519.794107913970947, 215.214179681991595, 346.264699459075928, 215.214179681991595 ],
									"source" : [ "obj-23", 0 ]
								}

							}
, 							{
								"patchline" : 								{
									"destination" : [ "obj-56", 0 ],
									"source" : [ "obj-25", 0 ]
								}

							}
, 							{
								"patchline" : 								{
									"destination" : [ "obj-210", 0 ],
									"order" : 0,
									"source" : [ "obj-35", 0 ]
								}

							}
, 							{
								"patchline" : 								{
									"destination" : [ "obj-23", 0 ],
									"order" : 1,
									"source" : [ "obj-35", 0 ]
								}

							}
, 							{
								"patchline" : 								{
									"destination" : [ "obj-109", 0 ],
									"midpoints" : [ 346.264699459075928, 169.872716116165179, 323.458182921043374, 169.872716116165179, 323.458182921043374, 217.872716116165179, 346.264699459075928, 217.872716116165179 ],
									"source" : [ "obj-38", 0 ]
								}

							}
, 							{
								"patchline" : 								{
									"destination" : [ "obj-7", 0 ],
									"source" : [ "obj-55", 0 ]
								}

							}
, 							{
								"patchline" : 								{
									"destination" : [ "obj-109", 0 ],
									"source" : [ "obj-7", 0 ]
								}

							}
, 							{
								"patchline" : 								{
									"destination" : [ "obj-109", 0 ],
									"midpoints" : [ 346.264699459075928, 202.872716116165179, 346.264699459075928, 202.872716116165179 ],
									"source" : [ "obj-8", 0 ]
								}

							}
, 							{
								"patchline" : 								{
									"destination" : [ "obj-109", 0 ],
									"midpoints" : [ 613.176459074020386, 343.872716116165179, 452.458182921043374, 343.872716116165179, 452.458182921043374, 334.872716116165179, 323.458182921043374, 334.872716116165179, 323.458182921043374, 217.872716116165179, 346.264699459075928, 217.872716116165179 ],
									"source" : [ "obj-95", 0 ]
								}

							}
 ],
						"originid" : "pat-112"
					}
,
					"patching_rect" : [ 195.0, 262.0, 257.0, 148.558826208114624 ],
					"presentation" : 1,
					"presentation_rect" : [ 15.0, 15.0, 259.689926505088806, 141.472870409488678 ],
					"varname" : "volumeEnvelop",
					"viewvisibility" : 1
				}

			}
, 			{
				"box" : 				{
					"id" : "obj-7",
					"maxclass" : "newobj",
					"numinlets" : 1,
					"numoutlets" : 1,
					"outlettype" : [ "signal" ],
					"patching_rect" : [ 105.0, 450.0, 44.0, 22.0 ],
					"text" : "noise~"
				}

			}
, 			{
				"box" : 				{
					"id" : "obj-5",
					"linecount" : 5,
					"maxclass" : "comment",
					"numinlets" : 1,
					"numoutlets" : 0,
					"patching_rect" : [ 464.198797941207886, 72.560235977172852, 150.0, 75.0 ],
					"text" : "- Générateur de bruit\n- hp\n- osc fm\n- Pitch env.\n- Vol. env."
				}

			}
, 			{
				"box" : 				{
					"comment" : "",
					"id" : "obj-3",
					"index" : 0,
					"maxclass" : "inlet",
					"numinlets" : 0,
					"numoutlets" : 1,
					"outlettype" : [ "" ],
					"patching_rect" : [ 195.0, 133.0, 30.326802134513855, 30.326802134513855 ]
				}

			}
, 			{
				"box" : 				{
					"attr" : "clickadd",
					"id" : "obj-84",
					"maxclass" : "attrui",
					"numinlets" : 1,
					"numoutlets" : 1,
					"outlettype" : [ "" ],
					"parameter_enable" : 0,
					"patching_rect" : [ 795.0, 197.289155602455139, 150.0, 22.0 ],
					"varname" : "attrui[1]"
				}

			}
, 			{
				"box" : 				{
					"attr" : "mode",
					"id" : "obj-87",
					"maxclass" : "attrui",
					"numinlets" : 1,
					"numoutlets" : 1,
					"outlettype" : [ "" ],
					"parameter_enable" : 0,
					"patching_rect" : [ 948.012053847312927, 197.289155602455139, 150.0, 22.0 ],
					"varname" : "attrui"
				}

			}
, 			{
				"box" : 				{
					"id" : "obj-93",
					"maxclass" : "panel",
					"numinlets" : 1,
					"numoutlets" : 0,
					"patching_rect" : [ 513.232182502746582, 307.894733905792236, 195.294126510620117, 229.117652416229248 ]
				}

			}
, 			{
				"box" : 				{
					"angle" : 270.0,
					"bgcolor" : [ 0.996078431372549, 0.298039215686275, 1.0, 1.0 ],
					"id" : "obj-94",
					"maxclass" : "panel",
					"mode" : 0,
					"numinlets" : 1,
					"numoutlets" : 0,
					"patching_rect" : [ 761.265058994293213, 27.409631252288818, 348.823541641235352, 362.058824062347412 ],
					"proportion" : 0.5
				}

			}
, 			{
				"box" : 				{
					"bgcolor" : [ 0.172137149796092, 0.172137100044002, 0.172137113045018, 1.0 ],
					"bgcolor2" : [ 0.172137149796092, 0.172137100044002, 0.172137113045018, 1.0 ],
					"bgfillcolor_angle" : 270.0,
					"bgfillcolor_autogradient" : 0.0,
					"bgfillcolor_color" : [ 0.172137149796092, 0.172137100044002, 0.172137113045018, 0.0 ],
					"bgfillcolor_color1" : [ 0.172137149796092, 0.172137100044002, 0.172137113045018, 1.0 ],
					"bgfillcolor_color2" : [ 0.172137149796092, 0.172137100044002, 0.172137113045018, 1.0 ],
					"bgfillcolor_proportion" : 0.5,
					"bgfillcolor_type" : "color",
					"fontsize" : 30.0,
					"gradient" : 1,
					"id" : "obj-118",
					"maxclass" : "message",
					"numinlets" : 2,
					"numoutlets" : 1,
					"outlettype" : [ "" ],
					"patching_rect" : [ 850.896559715270996, 797.984429687261581, 190.0, 43.0 ],
					"presentation" : 1,
					"presentation_linecount" : 2,
					"presentation_rect" : [ 15.0, 209.147060394287109, 90.106383085250854, 77.0 ],
					"text" : "1.858268",
					"textcolor" : [ 0.407843137254902, 0.407843137254902, 0.407843137254902, 1.0 ]
				}

			}
, 			{
				"box" : 				{
					"bgcolor" : [ 0.172137149796092, 0.172137100044002, 0.172137113045018, 0.03 ],
					"bgcolor2" : [ 0.172137149796092, 0.172137100044002, 0.172137113045018, 0.03 ],
					"bgfillcolor_angle" : 270.0,
					"bgfillcolor_autogradient" : 0.0,
					"bgfillcolor_color" : [ 0.172137149796092, 0.172137100044002, 0.172137113045018, 0.0 ],
					"bgfillcolor_color1" : [ 0.172137149796092, 0.172137100044002, 0.172137113045018, 0.03 ],
					"bgfillcolor_color2" : [ 0.172137149796092, 0.172137100044002, 0.172137113045018, 1.0 ],
					"bgfillcolor_proportion" : 0.5,
					"bgfillcolor_type" : "color",
					"fontface" : 0,
					"fontsize" : 30.0,
					"gradient" : 1,
					"id" : "obj-117",
					"linecount" : 2,
					"maxclass" : "message",
					"numinlets" : 2,
					"numoutlets" : 1,
					"outlettype" : [ "" ],
					"patching_rect" : [ 1006.318252205848694, 632.924182623624802, 94.0, 77.0 ],
					"presentation" : 1,
					"presentation_linecount" : 2,
					"presentation_rect" : [ 150.0, 209.147060394287109, 94.0, 77.0 ],
					"text" : "13.385827",
					"textcolor" : [ 0.407843137254902, 0.407843137254902, 0.407843137254902, 1.0 ]
				}

			}
, 			{
				"box" : 				{
					"angle" : 270.0,
					"bgcolor" : [ 0.2, 0.847058823529412, 0.650980392156863, 1.0 ],
					"id" : "obj-129",
					"maxclass" : "panel",
					"mode" : 0,
					"numinlets" : 1,
					"numoutlets" : 0,
					"patching_rect" : [ 753.306194663047791, 513.647069782018661, 344.705859184265137, 344.705860435962677 ],
					"proportion" : 0.5
				}

			}
, 			{
				"box" : 				{
					"angle" : 270.0,
					"bgcolor" : [ 0.125490196078431, 0.125490196078431, 0.125490196078431, 1.0 ],
					"id" : "obj-18",
					"maxclass" : "panel",
					"mode" : 0,
					"numinlets" : 1,
					"numoutlets" : 0,
					"patching_rect" : [ 570.0, 135.0, 128.0, 128.0 ],
					"presentation" : 1,
					"presentation_rect" : [ 0.0, 0.0, 555.0, 375.0 ],
					"proportion" : 0.5
				}

			}
 ],
		"lines" : [ 			{
				"patchline" : 				{
					"destination" : [ "obj-30", 0 ],
					"source" : [ "obj-1", 0 ]
				}

			}
, 			{
				"patchline" : 				{
					"destination" : [ "obj-34", 0 ],
					"source" : [ "obj-10", 0 ]
				}

			}
, 			{
				"patchline" : 				{
					"destination" : [ "obj-104", 0 ],
					"source" : [ "obj-100", 0 ]
				}

			}
, 			{
				"patchline" : 				{
					"destination" : [ "obj-36", 0 ],
					"source" : [ "obj-104", 0 ]
				}

			}
, 			{
				"patchline" : 				{
					"destination" : [ "obj-106", 0 ],
					"source" : [ "obj-105", 0 ]
				}

			}
, 			{
				"patchline" : 				{
					"destination" : [ "obj-104", 1 ],
					"order" : 1,
					"source" : [ "obj-106", 0 ]
				}

			}
, 			{
				"patchline" : 				{
					"destination" : [ "obj-118", 1 ],
					"order" : 0,
					"source" : [ "obj-106", 0 ]
				}

			}
, 			{
				"patchline" : 				{
					"destination" : [ "obj-14", 1 ],
					"midpoints" : [ 204.5, 510.0, 125.0, 510.0 ],
					"order" : 1,
					"source" : [ "obj-11", 0 ]
				}

			}
, 			{
				"patchline" : 				{
					"destination" : [ "obj-140", 1 ],
					"order" : 0,
					"source" : [ "obj-11", 0 ]
				}

			}
, 			{
				"patchline" : 				{
					"destination" : [ "obj-100", 0 ],
					"source" : [ "obj-110", 0 ]
				}

			}
, 			{
				"patchline" : 				{
					"destination" : [ "obj-110", 1 ],
					"source" : [ "obj-112", 0 ]
				}

			}
, 			{
				"patchline" : 				{
					"destination" : [ "obj-114", 0 ],
					"source" : [ "obj-113", 0 ]
				}

			}
, 			{
				"patchline" : 				{
					"destination" : [ "obj-112", 0 ],
					"order" : 1,
					"source" : [ "obj-114", 0 ]
				}

			}
, 			{
				"patchline" : 				{
					"destination" : [ "obj-117", 1 ],
					"order" : 0,
					"source" : [ "obj-114", 0 ]
				}

			}
, 			{
				"patchline" : 				{
					"destination" : [ "obj-130", 0 ],
					"source" : [ "obj-128", 0 ]
				}

			}
, 			{
				"patchline" : 				{
					"destination" : [ "obj-123", 1 ],
					"source" : [ "obj-130", 0 ]
				}

			}
, 			{
				"patchline" : 				{
					"destination" : [ "obj-138", 0 ],
					"source" : [ "obj-132", 0 ]
				}

			}
, 			{
				"patchline" : 				{
					"destination" : [ "obj-139", 0 ],
					"source" : [ "obj-133", 0 ]
				}

			}
, 			{
				"patchline" : 				{
					"destination" : [ "obj-133", 1 ],
					"source" : [ "obj-138", 0 ]
				}

			}
, 			{
				"patchline" : 				{
					"destination" : [ "obj-76", 0 ],
					"source" : [ "obj-14", 0 ]
				}

			}
, 			{
				"patchline" : 				{
					"destination" : [ "obj-79", 0 ],
					"source" : [ "obj-140", 0 ]
				}

			}
, 			{
				"patchline" : 				{
					"destination" : [ "obj-6", 0 ],
					"source" : [ "obj-15", 0 ]
				}

			}
, 			{
				"patchline" : 				{
					"destination" : [ "obj-59", 0 ],
					"source" : [ "obj-16", 0 ]
				}

			}
, 			{
				"patchline" : 				{
					"destination" : [ "obj-133", 0 ],
					"source" : [ "obj-17", 0 ]
				}

			}
, 			{
				"patchline" : 				{
					"destination" : [ "obj-12", 0 ],
					"source" : [ "obj-19", 0 ]
				}

			}
, 			{
				"patchline" : 				{
					"destination" : [ "obj-8", 0 ],
					"source" : [ "obj-2", 0 ]
				}

			}
, 			{
				"patchline" : 				{
					"destination" : [ "obj-12", 0 ],
					"source" : [ "obj-20", 0 ]
				}

			}
, 			{
				"patchline" : 				{
					"destination" : [ "obj-12", 0 ],
					"source" : [ "obj-23", 0 ]
				}

			}
, 			{
				"patchline" : 				{
					"destination" : [ "obj-9", 0 ],
					"source" : [ "obj-24", 0 ]
				}

			}
, 			{
				"patchline" : 				{
					"destination" : [ "obj-140", 0 ],
					"source" : [ "obj-25", 0 ]
				}

			}
, 			{
				"patchline" : 				{
					"destination" : [ "obj-25", 1 ],
					"source" : [ "obj-26", 0 ]
				}

			}
, 			{
				"patchline" : 				{
					"destination" : [ "obj-34", 0 ],
					"source" : [ "obj-29", 0 ]
				}

			}
, 			{
				"patchline" : 				{
					"destination" : [ "obj-34", 0 ],
					"midpoints" : [ 204.5, 178.0, 204.5, 178.0 ],
					"source" : [ "obj-3", 0 ]
				}

			}
, 			{
				"patchline" : 				{
					"destination" : [ "obj-110", 0 ],
					"order" : 0,
					"source" : [ "obj-30", 0 ]
				}

			}
, 			{
				"patchline" : 				{
					"destination" : [ "obj-96", 0 ],
					"midpoints" : [ 633.957835555076599, 372.832981646060944, 632.91464900970459, 372.832981646060944 ],
					"order" : 1,
					"source" : [ "obj-30", 0 ]
				}

			}
, 			{
				"patchline" : 				{
					"destination" : [ "obj-1", 0 ],
					"midpoints" : [ 237.75, 255.0, 633.957835555076599, 255.0 ],
					"source" : [ "obj-34", 1 ]
				}

			}
, 			{
				"patchline" : 				{
					"destination" : [ "obj-11", 0 ],
					"midpoints" : [ 204.5, 189.0, 204.5, 189.0 ],
					"source" : [ "obj-34", 0 ]
				}

			}
, 			{
				"patchline" : 				{
					"destination" : [ "obj-47", 0 ],
					"midpoints" : [ 271.0, 255.0, 594.198797941207886, 255.0 ],
					"source" : [ "obj-34", 2 ]
				}

			}
, 			{
				"patchline" : 				{
					"destination" : [ "obj-82", 0 ],
					"midpoints" : [ 304.25, 222.0, 804.5, 222.0 ],
					"source" : [ "obj-34", 3 ]
				}

			}
, 			{
				"patchline" : 				{
					"destination" : [ "obj-26", 0 ],
					"source" : [ "obj-35", 0 ]
				}

			}
, 			{
				"patchline" : 				{
					"destination" : [ "obj-35", 1 ],
					"source" : [ "obj-36", 0 ]
				}

			}
, 			{
				"patchline" : 				{
					"destination" : [ "obj-82", 0 ],
					"source" : [ "obj-4", 0 ]
				}

			}
, 			{
				"patchline" : 				{
					"destination" : [ "obj-26", 1 ],
					"midpoints" : [ 594.198797941207886, 420.884929716587067, 664.91464900970459, 420.884929716587067 ],
					"source" : [ "obj-47", 0 ]
				}

			}
, 			{
				"patchline" : 				{
					"destination" : [ "obj-72", 0 ],
					"source" : [ "obj-59", 0 ]
				}

			}
, 			{
				"patchline" : 				{
					"destination" : [ "obj-96", 1 ],
					"source" : [ "obj-6", 0 ]
				}

			}
, 			{
				"patchline" : 				{
					"destination" : [ "obj-14", 0 ],
					"midpoints" : [ 114.5, 474.0, 114.5, 474.0 ],
					"source" : [ "obj-7", 0 ]
				}

			}
, 			{
				"patchline" : 				{
					"destination" : [ "obj-132", 0 ],
					"source" : [ "obj-72", 2 ]
				}

			}
, 			{
				"patchline" : 				{
					"destination" : [ "obj-76", 1 ],
					"source" : [ "obj-72", 0 ]
				}

			}
, 			{
				"patchline" : 				{
					"destination" : [ "obj-79", 1 ],
					"source" : [ "obj-72", 1 ]
				}

			}
, 			{
				"patchline" : 				{
					"destination" : [ "obj-17", 0 ],
					"source" : [ "obj-76", 0 ]
				}

			}
, 			{
				"patchline" : 				{
					"destination" : [ "obj-17", 0 ],
					"source" : [ "obj-79", 0 ]
				}

			}
, 			{
				"patchline" : 				{
					"destination" : [ "obj-4", 0 ],
					"source" : [ "obj-8", 0 ]
				}

			}
, 			{
				"patchline" : 				{
					"destination" : [ "obj-83", 0 ],
					"source" : [ "obj-82", 1 ]
				}

			}
, 			{
				"patchline" : 				{
					"destination" : [ "obj-6", 1 ],
					"source" : [ "obj-83", 0 ]
				}

			}
, 			{
				"patchline" : 				{
					"destination" : [ "obj-82", 0 ],
					"source" : [ "obj-84", 0 ]
				}

			}
, 			{
				"patchline" : 				{
					"destination" : [ "obj-82", 0 ],
					"source" : [ "obj-87", 0 ]
				}

			}
, 			{
				"patchline" : 				{
					"destination" : [ "obj-89", 0 ],
					"source" : [ "obj-88", 0 ]
				}

			}
, 			{
				"patchline" : 				{
					"destination" : [ "obj-128", 0 ],
					"midpoints" : [ 804.5, 174.097455501556396, 779.946849584579468, 174.097455501556396, 779.946849584579468, 42.097455501556396, 873.174701333045959, 42.097455501556396 ],
					"order" : 0,
					"source" : [ "obj-89", 0 ]
				}

			}
, 			{
				"patchline" : 				{
					"destination" : [ "obj-90", 0 ],
					"order" : 1,
					"source" : [ "obj-89", 0 ]
				}

			}
, 			{
				"patchline" : 				{
					"destination" : [ "obj-82", 0 ],
					"source" : [ "obj-90", 0 ]
				}

			}
, 			{
				"patchline" : 				{
					"destination" : [ "obj-82", 0 ],
					"source" : [ "obj-92", 0 ]
				}

			}
, 			{
				"patchline" : 				{
					"destination" : [ "obj-35", 0 ],
					"source" : [ "obj-96", 0 ]
				}

			}
 ],
		"originid" : "pat-104",
		"parameters" : 		{
			"obj-11::obj-35" : [ "number", "number", 0 ],
			"parameterbanks" : 			{
				"0" : 				{
					"index" : 0,
					"name" : "",
					"parameters" : [ "-", "-", "-", "-", "-", "-", "-", "-" ]
				}

			}
,
			"inherited_shortname" : 1
		}
,
		"dependency_cache" : [ 			{
				"name" : "softClipper.maxpat",
				"bootpath" : "D:/OneDrive/Programmes/Maxpat/.nodes-everywhere",
				"patcherrelativepath" : ".",
				"type" : "JSON",
				"implicit" : 1
			}
 ],
		"autosave" : 0
	}

}
